<?xml version="1.0" encoding="UTF-8" standalone="no"?>
<svg width="24px" height="24px" viewBox="0 0 24 24" version="1.1" xmlns="http://www.w3.org/2000/svg" xmlns:xlink="http://www.w3.org/1999/xlink">
    <!-- Generator: Sketch 40 (33762) - http://www.bohemiancoding.com/sketch -->
    <title>ic_like</title>
    <desc>Created with Sketch.</desc>
    <defs></defs>
    <g id="Symbols" stroke="none" stroke-width="1" fill="none" fill-rule="evenodd">
        <g id="ic_like">
            <g>
                <rect id="bounds" x="0" y="0" width="24" height="24"></rect>
                <g id="chat" transform="translate(2.000000, 2.000000)">
                    <g id="Layer_1">
                        <g id="Group">
                            <path d="M10.0045955,0 C4.50886731,0 0.0537216828,4.44070968 0.0537216828,9.91877419 C0.0537216828,12.3886452 0.959676375,14.6474839 2.45805825,16.3837419 C2.00802589,17.6731613 1.17605178,18.7843226 0.0969579288,19.5825161 C0.782524272,19.816 1.5168932,19.9446452 2.28187702,19.9446452 C3.59022654,19.9446452 4.81145631,19.5736129 5.84608414,18.931871 C7.11152104,19.5129677 8.51993528,19.8376129 10.0045955,19.8376129 C15.5003236,19.8376129 19.9554693,15.3967742 19.9554693,9.91877419 C19.955534,4.44070968 15.5003883,0 10.0045955,0 L10.0045955,0 Z" id="Shape" fill="#FB7598"></path>
                            <path d="M10.0046602,6.90574194 C8.95566343,5.86012903 7.25495146,5.86012903 6.20595469,6.90567742 C5.15695793,7.95129032 5.15695793,9.64658065 6.20595469,10.6921935 L10.0045955,14.4785806 L13.803301,10.6920645 C14.8522977,9.64645161 14.8523625,7.95122581 13.8033657,6.9056129 C12.7543689,5.86006452 11.0535922,5.86012903 10.0046602,6.90574194 L10.0046602,6.90574194 Z" id="Shape" fill="#FFFFFF"></path>
                        </g>
                    </g>
                </g>
            </g>
        </g>
    </g>
</svg>