<?xml version="1.0" encoding="UTF-8" standalone="no"?>
<svg width="20px" height="20px" viewBox="0 0 20 20" version="1.1" xmlns="http://www.w3.org/2000/svg" xmlns:xlink="http://www.w3.org/1999/xlink">
    <!-- Generator: Sketch 40 (33762) - http://www.bohemiancoding.com/sketch -->
    <title>ic_msg</title>
    <desc>Created with Sketch.</desc>
    <defs></defs>
    <g id="Symbols" stroke="none" stroke-width="1" fill="none" fill-rule="evenodd">
        <g id="ic_msg" transform="translate(-2.000000, -2.000000)">
            <g>
                <rect id="bounds" x="0" y="0" width="24" height="24"></rect>
                <g id="chat" transform="translate(2.000000, 2.000000)">
                    <g id="Layer_1">
                        <g id="Group">
                            <path d="M9.95087379,0 C4.45514563,0 0,4.44070968 0,9.91877419 C0,12.3886452 0.905954693,14.6474839 2.40433657,16.3837419 C1.95430421,17.6731613 1.1223301,18.7843226 0.043236246,19.5825161 C0.728802589,19.816 1.46317152,19.9446452 2.22815534,19.9446452 C3.53650485,19.9446452 4.75773463,19.5736129 5.79236246,18.931871 C7.05779935,19.5129677 8.46621359,19.8376129 9.95087379,19.8376129 C15.4466019,19.8376129 19.9017476,15.3967742 19.9017476,9.91877419 C19.9018123,4.44070968 15.4466667,0 9.95087379,0 L9.95087379,0 Z" id="Shape" fill="#8BC24A"></path>
                            <path d="M7,9 C6.45,9 6,9.45 6,10 C6,10.55 6.45,11 7,11 C7.55,11 8,10.55 8,10 C8,9.45 7.55,9 7,9 L7,9 Z M13,9 C12.45,9 12,9.45 12,10 C12,10.55 12.45,11 13,11 C13.55,11 14,10.55 14,10 C14,9.45 13.55,9 13,9 L13,9 Z M10,9 C9.45,9 9,9.45 9,10 C9,10.55 9.45,11 10,11 C10.55,11 11,10.55 11,10 C11,9.45 10.55,9 10,9 L10,9 Z" id="Shape" fill="#FFFFFF"></path>
                        </g>
                    </g>
                </g>
            </g>
        </g>
    </g>
</svg>