<?xml version="1.0" encoding="UTF-8" standalone="no"?>
<svg width="20px" height="20px" viewBox="0 0 20 20" version="1.1" xmlns="http://www.w3.org/2000/svg" xmlns:xlink="http://www.w3.org/1999/xlink">
    <!-- Generator: Sketch 40 (33762) - http://www.bohemiancoding.com/sketch -->
    <title>ic_like</title>
    <desc>Created with Sketch.</desc>
    <defs></defs>
    <g id="Symbols" stroke="none" stroke-width="1" fill="none" fill-rule="evenodd">
        <g id="ic_share" transform="translate(-2.000000, -2.000000)">
            <g id="ic_like">
                <rect id="bounds" x="0" y="0" width="24" height="24"></rect>
                <g id="chat" transform="translate(2.000000, 2.000000)">
                    <g id="Layer_1">
                        <g id="Group">
                            <path d="M9.95087379,0 C4.45514563,0 0,4.44070968 0,9.91877419 C0,12.3886452 0.905954693,14.6474839 2.40433657,16.3837419 C1.95430421,17.6731613 1.1223301,18.7843226 0.043236246,19.5825161 C0.728802589,19.816 1.46317152,19.9446452 2.22815534,19.9446452 C3.53650485,19.9446452 4.75773463,19.5736129 5.79236246,18.931871 C7.05779935,19.5129677 8.46621359,19.8376129 9.95087379,19.8376129 C15.4466019,19.8376129 19.9017476,15.3967742 19.9017476,9.91877419 C19.9018123,4.44070968 15.4466667,0 9.95087379,0 L9.95087379,0 Z" id="Shape" fill="#02A8F4"></path>
                            <path d="M12.1666667,11.8614458 C11.8288889,11.8614458 11.5266667,11.996988 11.2955556,12.2093373 L8.12666667,10.3343373 C8.14888889,10.2304217 8.16666667,10.126506 8.16666667,10.0180723 C8.16666667,9.90963855 8.14888889,9.80572289 8.12666667,9.70180723 L11.26,7.84487952 C11.5,8.07078313 11.8155556,8.21084337 12.1666667,8.21084337 C12.9044444,8.21084337 13.5,7.60542169 13.5,6.85542169 C13.5,6.10542169 12.9044444,5.5 12.1666667,5.5 C11.4288889,5.5 10.8333333,6.10542169 10.8333333,6.85542169 C10.8333333,6.96385542 10.8511111,7.06777108 10.8733333,7.17168675 L7.74,9.02861446 C7.5,8.80271084 7.18444444,8.6626506 6.83333333,8.6626506 C6.09555556,8.6626506 5.5,9.26807229 5.5,10.0180723 C5.5,10.7680723 6.09555556,11.373494 6.83333333,11.373494 C7.18444444,11.373494 7.5,11.2334337 7.74,11.0075301 L10.9044444,12.8870482 C10.8822222,12.9819277 10.8688889,13.0813253 10.8688889,13.1807229 C10.8688889,13.9081325 11.4511111,14.5 12.1666667,14.5 C12.8822222,14.5 13.4644444,13.9081325 13.4644444,13.1807229 C13.4644444,12.4533133 12.8822222,11.8614458 12.1666667,11.8614458 L12.1666667,11.8614458 Z" id="Shape" fill="#FFFFFF"></path>
                        </g>
                    </g>
                </g>
            </g>
        </g>
    </g>
</svg>